<?xml version="1.0" encoding="utf-8"?>
<!-- Generator: Adobe Illustrator 16.0.0, SVG Export Plug-In . SVG Version: 6.00 Build 0)  -->
<!DOCTYPE svg PUBLIC "-//W3C//DTD SVG 1.1//EN" "http://www.w3.org/Graphics/SVG/1.1/DTD/svg11.dtd">
<svg version="1.1" id="Layer_1" xmlns="http://www.w3.org/2000/svg" xmlns:xlink="http://www.w3.org/1999/xlink" x="0px" y="0px"
	 width="1822px" height="700px" viewBox="0 0 1822 700" enable-background="new 0 0 1822 700" xml:space="preserve">
<path fill-rule="evenodd" clip-rule="evenodd" fill="#EF8C2E" d="M57.246,366.832c-0.342-26.869-0.017-51.195,0.856-75.512
	c0.598-16.633,2.873-32.788,12.393-47.155c12.157-18.348,29.652-28.408,50.692-32.559c26.301-5.188,52.244-4.004,76.369,8.783
	c22.51,11.932,35.11,31.283,37.442,56.659c3.666,39.9,1.595,79.934,1.985,119.909c0.174,17.826,0.076,35.667-1.81,53.421
	c-3.517,33.093-22.091,55.844-54.081,65.002c-26.019,7.449-52.188,7.02-77.351-3.491c-27.775-11.603-42.326-33.241-44.831-63.16
	c-1.183-14.126-1.366-28.286-1.613-42.439C57.055,392.296,57.246,378.294,57.246,366.832z M158.997,363.329c0.066,0,0.132,0,0.197,0
	c0-22.812,0.058-45.624-0.03-68.436c-0.031-8.311,0.307-16.646-1.122-24.91c-1.136-6.569-4.116-9.678-9.856-9.938
	c-5.966-0.27-9.947,2.738-11.391,8.906c-1.448,6.185-1.754,12.508-1.754,18.839c0.001,50.785,0.011,101.57,0.033,152.355
	c0.003,6.829,0.281,13.662,1.597,20.37c1.163,5.934,4.239,8.341,9.974,8.445c5.694,0.104,9.068-2.288,10.557-7.887
	c1.372-5.165,1.774-10.494,1.781-15.825C159.015,417.943,158.997,390.637,158.997,363.329z"/>
<path fill-rule="evenodd" clip-rule="evenodd" fill="#EF8C2E" d="M632.933,390.578c0.615-18.506-0.775-37.508,1.051-56.474
	c3.37-34.989,18.491-60.811,65.087-67.979c16.115-2.479,32.255-1.619,48.061,2.594c31.863,8.493,50.105,29.371,54.861,61.938
	c3.028,20.732,1.754,41.565,2.158,62.363c0.079,4.074-2.688,2.979-4.75,2.981c-28.494,0.045-56.988,0.175-85.479-0.104
	c-5.098-0.05-6.344,1.256-6.244,6.274c0.349,17.489,0.152,34.989,0.201,52.484c0.011,3.828,0.148,7.643,0.982,11.425
	c1.283,5.821,3.829,8.383,9.176,8.852c5.967,0.522,10.771-1.911,12.701-6.779c1.541-3.89,2.215-8.031,2.263-12.216
	c0.149-13.161,0.325-26.324,0.233-39.484c-0.023-3.401,0.791-4.566,4.395-4.537c20.828,0.168,41.656,0.075,62.485,0.093
	c1.89,0.002,4.077-0.639,4.031,2.705c-0.198,14.483,0.805,29.045-1.599,43.401c-4.849,28.961-25.668,50.822-54.436,57.062
	c-22.042,4.781-44.057,4.19-65.588-2.824c-29.705-9.678-46.455-32.171-48.604-63.352
	C632.588,429.678,633.441,410.363,632.933,390.578z M707.807,335.799c0,6.364,0.088,11.53-0.039,16.692
	c-0.059,2.424,0.465,3.667,3.265,3.559c4.99-0.192,9.999-0.19,14.989-0.001c2.804,0.107,3.318-1.153,3.264-3.57
	c-0.121-5.328,0.047-10.662-0.059-15.991c-0.134-6.817,0.201-13.667-1.221-20.412c-1.186-5.623-4.194-8.139-9.681-8.034
	c-5.915,0.112-8.426,2.291-9.527,8.027C707.465,323.005,708.12,330.021,707.807,335.799z"/>
<path fill-rule="evenodd" clip-rule="evenodd" fill="#EF8C2E" d="M1147.936,390.668c0.585-18.812-0.866-37.99,1.094-57.108
	c2.395-23.374,10.052-43.802,31.679-56.362c12.173-7.07,25.445-10.679,39.354-11.817c15.036-1.23,30.013-0.405,44.531,3.979
	c30.289,9.146,47.718,29.438,52.347,60.851c3.08,20.896,1.822,41.895,2.206,62.86c0.075,4.108-2.766,2.924-4.794,2.927
	c-28.66,0.053-57.32,0.157-85.979-0.084c-4.715-0.04-5.734,1.369-5.668,5.809c0.264,17.658,0.127,35.322,0.175,52.985
	c0.01,3.828,0.277,7.626,0.958,11.428c0.91,5.087,3.58,8.11,8.75,8.761c6.057,0.763,11.203-1.778,13.17-6.784
	c1.529-3.892,2.2-8.034,2.246-12.22c0.146-13.161,0.329-26.324,0.228-39.484c-0.026-3.465,0.913-4.514,4.446-4.486
	c20.827,0.16,41.656,0.063,62.484,0.112c1.598,0.004,3.968-0.917,3.935,2.23c-0.175,16.633,1.672,33.542-2.825,49.735
	c-7.212,25.972-23.821,43.749-50.293,50.516c-22.689,5.8-45.637,5.143-68.039-1.989c-29.946-9.534-46.872-32.214-49.023-63.57
	C1147.591,429.629,1148.445,410.314,1147.936,390.668z M1222.807,335.372c0,6.463,0.088,11.796-0.039,17.124
	c-0.058,2.431,0.477,3.661,3.27,3.554c4.99-0.191,9.999-0.19,14.989,0c2.81,0.106,3.313-1.166,3.259-3.576
	c-0.12-5.328,0.046-10.663-0.059-15.992c-0.133-6.816,0.201-13.667-1.222-20.411c-1.186-5.621-4.198-8.136-9.685-8.029
	c-5.915,0.114-8.416,2.293-9.525,8.032C1222.486,322.845,1223.121,329.693,1222.807,335.372z"/>
<path fill-rule="evenodd" clip-rule="evenodd" fill="#EF8C2E" d="M1462.555,348.031c-9.663,0.001-19.329-0.134-28.988,0.075
	c-3.277,0.071-4.296-0.883-4.258-4.179c0.094-7.991-0.02-15.997-0.392-23.98c-0.403-8.667-3.175-11.67-10.234-11.904
	c-7.331-0.243-11.485,3.467-12.848,11.108c-1.164,6.524-0.365,12.977,0.548,19.387c0.941,6.606,5.686,10.771,10.672,14.495
	c8.576,6.405,18.183,11.066,27.702,15.842c9.971,5.001,19.768,10.271,29.239,16.203c16.285,10.199,25.34,24.714,26.722,43.805
	c1.036,14.315,0.738,28.608-2.11,42.779c-4.144,20.608-16.816,33.773-36.237,40.189c-29.005,9.583-58.033,8.492-86.539-2.386
	c-21.219-8.098-32.355-23.988-34.777-46.424c-1.13-10.468-1.098-20.941-1.263-31.431c-0.044-2.832,0.826-3.685,3.666-3.669
	c19.659,0.109,39.319,0.114,58.978-0.004c2.92-0.018,3.59,0.972,3.601,3.722c0.039,10.482-0.534,20.979,0.906,31.437
	c1.396,10.136,7.576,14.127,17.32,11.033c3.483-1.106,5.914-3.229,6.644-6.768c2.11-10.242,1.938-20.485-0.482-30.678
	c-0.892-3.755-3.781-5.731-6.734-7.663c-14.083-9.211-29.051-16.91-43.496-25.499c-5.573-3.313-10.909-7.029-16.343-10.577
	c-16.12-10.523-24.145-25.81-25.613-44.633c-1.038-13.311-0.674-26.625,1.98-39.797c3.32-16.481,13.074-27.704,28.18-34.516
	c19.213-8.664,39.484-10.071,60.146-8.487c13.564,1.04,26.691,3.919,38.715,10.529c17.458,9.599,28.139,23.525,27.913,44.376
	c-0.086,7.987,0.249,15.984,0.561,23.971c0.11,2.823-0.842,3.742-3.688,3.699C1482.215,347.94,1472.384,348.031,1462.555,348.031z"
	/>
<path fill-rule="evenodd" clip-rule="evenodd" fill="#EF8C2E" d="M900.805,388.88c0,20.161,0.017,40.321-0.01,60.482
	c-0.007,5.857,0.273,11.672,2.404,17.208c2.295,5.961,6.286,8.775,11.613,8.364c5.378-0.415,8.87-3.658,10.072-10.091
	c2.402-12.854,1.728-25.883,1.889-38.864c0.051-4.128-1.748-9.415,0.734-12.074c2.54-2.721,7.891-0.831,11.997-0.859
	c16.494-0.113,32.99-0.063,49.485-0.024c1.806,0.004,4.109-0.825,4.085,2.604c-0.108,14.827,0.167,29.743-2.693,44.319
	c-6.133,31.256-31.439,53.63-63.373,57.057c-15.515,1.665-30.922,1.503-46.192-1.892c-29.193-6.489-46.957-25.446-51.818-55.026
	c-1.921-11.691-2.958-23.445-2.958-35.291c0.002-25.992-0.004-51.984,0.034-77.978c0.014-9.009,1.06-17.936,2.293-26.85
	c2.951-21.325,15.776-35.569,34.217-44.364c32.742-15.616,65.726-15.18,97.64,2.728c19.024,10.675,28.102,28.141,30.721,49.354
	c1.226,9.924,2.081,19.858,2.171,29.872c0.03,3.33-0.602,4.597-4.285,4.563c-20.492-0.182-40.988-0.202-61.48,0.013
	c-3.94,0.042-4.594-1.273-4.591-4.829c0.011-12.484,0.693-24.992-0.764-37.449c-0.968-8.279-4.688-12.19-11.308-11.804
	c-4.519,0.264-7.493,2.488-8.606,6.949c-0.975,3.903-1.206,7.891-1.205,11.899c0.005,20.66,0.002,41.32,0.002,61.981
	C900.854,388.88,900.829,388.88,900.805,388.88z"/>
<path fill-rule="evenodd" clip-rule="evenodd" fill="#EF8C2E" d="M542.781,444.434c1.771-20.318,3.537-40.123,5.213-59.936
	c2.891-34.174,5.169-68.4,8.728-102.519c0.017-0.165,0.037-0.331,0.058-0.496c0.49-4.069-0.981-9.668,2.043-11.765
	c2.851-1.976,8.015-0.696,12.16-0.705c16.165-0.036,32.331,0.088,48.494-0.093c3.655-0.041,4.931,0.604,4.349,4.64
	c-8.758,60.769-17.368,121.558-26.022,182.341c-2.604,18.284-5.288,36.558-7.791,54.855c-0.349,2.548-1.286,3.321-3.777,3.316
	c-30.329-0.065-60.659-0.096-90.988,0.034c-3.216,0.014-3.34-1.765-3.674-3.953c-2.834-18.585-5.705-37.164-8.542-55.748
	c-5.173-33.881-10.317-67.766-15.497-101.645c-4.098-26.807-8.208-53.611-12.385-80.405c-0.424-2.721,0.46-3.416,3.097-3.404
	c19.831,0.088,39.662,0.149,59.491-0.047c3.514-0.035,3.698,1.956,3.969,4.254c1.789,15.207,3.521,30.421,5.291,45.631
	c3.135,26.947,6.278,53.893,9.431,80.838c1.508,12.893,3.045,25.782,4.564,38.674C541.219,440.234,541.002,442.281,542.781,444.434z
	"/>
<path fill-rule="evenodd" clip-rule="evenodd" fill="#EF8C2E" d="M263.146,363.998c0-47.666,0.066-95.331-0.105-142.996
	c-0.017-4.612,0.791-6.213,5.855-6.141c22.162,0.318,44.331,0.22,66.496,0.055c3.62-0.027,4.771,0.743,4.767,4.609
	c-0.116,96.665-0.117,193.33,0.002,289.994c0.004,3.898-1.203,4.618-4.792,4.593c-22.498-0.159-45-0.205-67.497,0.03
	c-4.246,0.045-4.803-1.491-4.795-5.147C263.18,460.663,263.146,412.33,263.146,363.998z"/>
<path fill-rule="evenodd" clip-rule="evenodd" fill="#EF8C2E" d="M1600.035,388.868c0,21.32-0.029,42.641,0.027,63.961
	c0.01,3.654,0.203,7.328,0.627,10.956c1.11,9.485,1.18,9.478,10.719,10.783c0.494,0.067,0.993,0.114,1.485,0.195
	c3.246,0.537,7.575-1.312,9.542,1.025c2.057,2.445,0.604,6.705,0.644,10.166c0.094,8.161,0.026,16.323,0.032,24.485
	c0.001,1.851,0.276,3.675-2.629,3.615c-20.625-0.421-41.334,1.256-61.845-1.939c-19.834-3.09-31.563-16.767-32.646-36.885
	c-1.444-26.802-0.796-53.618-0.905-80.429c-0.104-25.317-0.117-50.637,0.075-75.953c0.03-4.008-1.128-4.982-4.997-4.911
	c-11.134,0.206-11.137,0.034-11.137-10.966c0-7.995,0.104-15.992-0.056-23.984c-0.057-2.861,0.462-4.188,3.767-4.088
	c3.93,0.119,9.137,1.837,11.513-0.716c2.538-2.727,0.7-7.93,0.774-12.045c0.136-7.493,0.146-14.992-0.017-22.484
	c-0.061-2.779,0.722-3.729,3.616-3.715c22.653,0.106,45.307,0.115,67.959-0.006c3.064-0.017,3.494,1.219,3.464,3.828
	c-0.118,10.159,0.171,20.327-0.154,30.478c-0.132,4.111,1.269,4.929,5.032,4.866c4.913-0.082,11.496-2.236,14.296,0.968
	c2.429,2.777,0.755,9.187,0.798,13.991c0.055,6.163-0.35,12.354,0.128,18.48c0.378,4.852-1.503,5.974-5.839,5.55
	c-3.3-0.322-6.679,0.179-9.981-0.129c-3.576-0.333-4.427,0.985-4.404,4.444c0.148,23.484,0.077,46.971,0.077,70.457
	C1600.012,388.868,1600.023,388.868,1600.035,388.868z"/>
<path fill-rule="evenodd" clip-rule="evenodd" fill="#EF8C2E" d="M1087.168,298.943c3.6-4.555,6.355-9.661,9.988-14.194
	c8.472-10.57,19.2-17.235,32.671-19.461c3.311-0.546,4.263,0.259,4.245,3.687c-0.132,25.989-0.129,51.979,0.001,77.969
	c0.017,3.273-0.907,4.269-4.167,4.195c-5.326-0.118-10.621,0.631-15.837,1.79c-15.056,3.345-22.071,11.746-23.1,27.093
	c-1.852,27.63-0.742,55.288-1.007,82.932c-0.149,15.659-0.117,31.321,0.046,46.98c0.034,3.299-0.95,4.188-4.202,4.168
	c-22.157-0.133-44.316-0.131-66.473-0.002c-3.214,0.019-4.261-0.788-4.257-4.139c0.089-78.969,0.089-157.938-0.001-236.905
	c-0.004-3.364,1.061-4.144,4.261-4.125c22.157,0.129,44.315,0.126,66.473,0.005c3.265-0.018,4.285,0.721,3.854,4.182
	C1088.598,281.697,1087.971,290.331,1087.168,298.943z"/>
<path fill-rule="evenodd" clip-rule="evenodd" fill="#EF8C2E" d="M444.066,391.619c0,39.165-0.052,78.331,0.083,117.496
	c0.014,3.816-0.823,5.057-4.878,5.019c-22.497-0.212-44.998-0.192-67.496-0.013c-3.756,0.03-4.719-0.98-4.713-4.722
	c0.109-78.665,0.105-157.33,0.01-235.994c-0.004-3.466,0.872-4.511,4.418-4.486c22.665,0.157,45.333,0.175,67.997-0.013
	c3.785-0.031,4.679,1.011,4.665,4.716C444.015,312.954,444.066,352.286,444.066,391.619z"/>
<path fill-rule="evenodd" clip-rule="evenodd" fill="#EF8C2E" d="M406.001,214.999c11.332,0,22.667,0.123,33.996-0.076
	c3.328-0.059,4.2,0.983,4.141,4.21c-0.19,10.329-0.174,20.665-0.007,30.995c0.049,3.001-0.711,3.994-3.871,3.976
	c-22.998-0.134-45.997-0.137-68.995,0.001c-3.312,0.02-4.247-0.962-4.188-4.216c0.188-10.33,0.18-20.666,0.002-30.996
	c-0.053-3.065,0.827-4.006,3.926-3.961C382.668,215.101,394.335,214.999,406.001,214.999z"/>
<path fill-rule="evenodd" clip-rule="evenodd" fill="#FEFEFE" d="M158.997,363.329c0,27.308,0.018,54.614-0.015,81.921
	c-0.007,5.331-0.409,10.66-1.781,15.825c-1.488,5.599-4.862,7.99-10.557,7.887c-5.734-0.104-8.811-2.512-9.974-8.445
	c-1.315-6.708-1.594-13.541-1.597-20.37c-0.022-50.785-0.032-101.57-0.033-152.355c0-6.331,0.306-12.654,1.754-18.839
	c1.443-6.168,5.425-9.176,11.391-8.906c5.74,0.26,8.721,3.368,9.856,9.938c1.429,8.264,1.091,16.6,1.122,24.91
	c0.088,22.812,0.03,45.624,0.03,68.436C159.129,363.329,159.063,363.329,158.997,363.329z"/>
<path fill-rule="evenodd" clip-rule="evenodd" fill="#FEFEFE" d="M707.807,335.799c0.313-5.777-0.342-12.794,0.991-19.73
	c1.102-5.736,3.612-7.915,9.527-8.027c5.486-0.104,8.495,2.411,9.681,8.034c1.422,6.745,1.087,13.595,1.221,20.412
	c0.105,5.329-0.063,10.663,0.059,15.991c0.055,2.417-0.46,3.678-3.264,3.57c-4.99-0.189-9.999-0.191-14.989,0.001
	c-2.8,0.108-3.323-1.135-3.265-3.559C707.895,347.329,707.807,342.163,707.807,335.799z"/>
<path fill-rule="evenodd" clip-rule="evenodd" fill="#FEFEFE" d="M1222.807,335.372c0.314-5.679-0.32-12.527,0.988-19.299
	c1.109-5.739,3.61-7.918,9.525-8.032c5.486-0.106,8.499,2.408,9.685,8.029c1.423,6.744,1.089,13.595,1.222,20.411
	c0.104,5.329-0.062,10.664,0.059,15.992c0.054,2.41-0.449,3.683-3.259,3.576c-4.99-0.19-9.999-0.191-14.989,0
	c-2.793,0.107-3.327-1.123-3.27-3.554C1222.895,347.168,1222.807,341.835,1222.807,335.372z"/>
</svg>
